<svg xmlns="http://www.w3.org/2000/svg" viewBox="0 0 600 350" width="600" height="350">
  <defs>
    <style>
      .cls-1 { fill: #3182ce; }
      .cls-2 { fill: #dd6b20; }
      .cls-3 { fill: #ecc94b; }
      .cls-4 { fill: none; stroke: #2d3748; stroke-width: 12px; stroke-linecap: round; stroke-linejoin: round; }
      .cls-5 { fill: #2d3748; }
      .cls-6 { font-family: Arial, sans-serif; font-weight: bold; font-size: 110px; }
    </style>
  </defs>
  <g id="icon">
    <circle class="cls-4" cx="200" cy="140" r="75"/>
    <circle class="cls-1" cx="200" cy="140" r="63"/>
    <line class="cls-4" x1="253" y1="193" x2="300" y2="240"/>
    <path class="cls-5" d="M200,100a20,20,0,0,1,20,20c0,10-10,15-15,20s-5,10-5,20h-10c0-15,10-20,15-25s5-10,5-15a10,10,0,0,0-20,0h-10a20,20,0,0,1,30-20Z"/>
    <circle class="cls-5" cx="200" cy="180" r="7"/>
    <line class="cls-4" x1="275" y1="140" x2="325" y2="140"/>
    <line class="cls-4" x1="325" y1="80" x2="325" y2="200"/>
    <line class="cls-4" x1="400" y1="80" x2="400" y2="200"/>
    <line class="cls-4" x1="325" y1="140" x2="400" y2="140"/>
    <circle class="cls-3" cx="325" cy="80" r="20" stroke="#2d3748" stroke-width="8"/>
    <circle class="cls-1" cx="325" cy="200" r="20" stroke="#2d3748" stroke-width="8"/>
    <circle class="cls-2" cx="400" cy="80" r="20" stroke="#2d3748" stroke-width="8"/>
    <circle class="cls-2" cx="400" cy="200" r="20" stroke="#2d3748" stroke-width="8"/>
  </g>
  <g id="text">
    <g transform="translate(230, 240)">
      <path class="cls-3" d="M0,20a20,20,0,1,1,35-15l5,5-10,0a20,20,0,0,1-30,10Z" stroke="#2d3748" stroke-width="4"/>
      <path class="cls-4" d="M12,20l8,8 16,-16" stroke-width="4" transform="scale(0.7) translate(10,10)"/>
    </g>
    <text x="120" y="320" class="cls-6"><tspan class="cls-1">quiz</tspan><tspan class="cls-2">Hub</tspan></text>
  </g>
</svg>
